<svg width="315" height="686" viewBox="0 0 315 686" fill="none" xmlns="http://www.w3.org/2000/svg">
    <g clip-path="url(#clip0_6_10594)">
        <path d="M39.1479 344.472C-22.6665 234.666 72.1099 95.5576 127.225 39.7293C304.12 -146.081 508.472 244.368 343.26 369.983C178.049 495.597 608.864 560.555 503.673 633.832C398.481 707.11 146.737 676.529 58.4899 607.601C-29.7572 538.674 116.416 481.73 39.1479 344.472Z"
              stroke="#828282" stroke-width="3"/>
        <path d="M272.24 276.022C239.727 218.158 289.627 144.824 318.641 115.39C411.764 17.4292 519.244 223.186 432.279 289.419C345.315 355.652 572.026 389.819 516.656 428.457C461.286 467.096 328.807 451.018 282.377 414.704C235.947 378.389 312.882 348.353 272.24 276.022Z"
              stroke="#828282" stroke-width="3"/>
        <path d="M50.3046 341.09C-10.155 233.837 82.478 98 136.352 43.4883C309.262 -137.941 509.141 243.427 347.641 366.071C186.141 488.714 607.363 552.246 504.533 623.789C401.704 695.331 155.566 665.41 69.2721 598.075C-17.022 530.739 125.879 475.157 50.3046 341.09Z"
              stroke="#828282" stroke-width="3"/>
        <path d="M61.4183 337.77C2.40158 232.956 92.8785 100.177 145.494 46.8896C314.367 -130.464 509.471 242.234 351.75 362.131C194.03 482.027 605.324 544.044 504.902 613.986C404.48 683.928 164.143 654.729 79.8924 588.933C-4.35787 523.138 135.189 468.788 61.4183 337.77Z"
              stroke="#828282" stroke-width="3"/>
        <path d="M72.5261 334.641C14.8763 232.317 103.229 102.708 154.612 50.6941C319.528 -122.421 510.115 241.423 356.086 358.45C202.057 475.477 603.761 536.057 505.689 604.324C407.617 672.59 172.884 644.064 90.5932 579.827C8.30239 515.59 144.588 462.548 72.5261 334.641Z"
              stroke="#828282" stroke-width="3"/>
        <path d="M83.6403 331.321C27.4334 231.436 113.631 104.885 163.755 54.0955C324.633 -114.944 510.445 240.23 360.196 354.51C209.947 468.79 601.723 527.855 506.058 594.521C410.394 661.187 181.461 633.383 101.214 570.686C20.967 507.989 153.899 456.179 83.6403 331.321Z"
              stroke="#828282" stroke-width="3"/>
        <path d="M94.7475 328.193C39.9076 230.797 123.981 107.416 172.873 57.8999C329.793 -106.901 511.089 239.419 364.531 350.829C217.974 462.239 600.159 519.868 506.844 584.859C413.529 649.85 190.202 622.718 111.914 561.579C33.6267 500.44 163.297 449.938 94.7475 328.193Z"
              stroke="#828282" stroke-width="3"/>
        <path d="M105.861 324.872C52.4641 229.915 134.382 109.593 182.015 61.3013C334.898 -99.4242 511.419 238.226 368.641 346.889C225.863 455.553 598.12 511.666 507.213 575.056C416.306 638.446 198.778 612.036 122.535 552.438C46.2908 492.839 172.608 443.569 105.861 324.872Z"
              stroke="#828282" stroke-width="3"/>
        <path d="M116.97 321.744C64.9394 229.276 144.733 112.124 191.134 65.1057C340.06 -91.3812 512.064 237.414 372.977 343.208C233.891 449.002 596.557 503.678 508 565.394C419.443 627.109 207.52 601.372 133.236 543.331C58.9516 485.291 182.007 437.328 116.97 321.744Z"
              stroke="#828282" stroke-width="3"/>
        <path d="M127.754 318.097C77.027 228.107 154.749 114.134 199.951 68.3967C345.027 -83.8307 512.729 236.152 377.226 339.056C241.724 441.959 595.139 495.264 508.862 555.291C422.585 615.318 216.07 590.214 143.667 533.717C71.2645 477.22 191.162 430.585 127.754 318.097Z"
              stroke="#828282" stroke-width="3"/>
        <path d="M138.832 314.963C89.5359 227.475 165.082 116.662 209.017 72.1911C350.028 -75.8186 512.999 235.268 381.296 335.323C249.593 435.378 593.078 487.18 509.22 545.546C425.363 603.912 224.65 579.518 154.284 524.594C83.9191 469.671 200.452 424.322 138.832 314.963Z"
              stroke="#828282" stroke-width="3"/>
        <path d="M149.976 311.648C102.059 226.587 175.501 118.842 218.212 75.6025C355.293 -68.3106 513.704 234.148 385.672 331.435C257.64 428.722 591.538 479.074 510.018 535.826C428.499 592.578 233.388 568.868 164.989 515.47C96.5894 462.071 209.872 417.975 149.976 311.648Z"
              stroke="#828282" stroke-width="3"/>
        <path d="M161.053 308.514C114.567 225.955 185.833 121.369 227.277 79.3968C360.294 -60.2986 513.973 233.264 389.741 327.702C265.508 422.14 589.475 470.99 510.375 526.081C431.275 581.171 241.967 558.172 175.605 506.347C109.243 454.521 219.161 411.713 161.053 308.514Z"
              stroke="#828282" stroke-width="3"/>
        <path d="M172.197 305.199C127.09 225.067 196.252 123.55 236.472 82.8083C365.559 -52.7905 514.678 232.144 394.117 323.814C273.557 415.484 587.935 462.885 511.174 516.361C434.412 569.837 250.706 547.522 186.31 497.222C121.914 446.921 228.581 405.365 172.197 305.199Z"
              stroke="#828282" stroke-width="3"/>
        <path d="M183.304 302.071C139.564 224.428 206.603 126.081 245.59 86.6128C370.719 -44.7474 515.322 231.333 398.453 320.133C281.584 408.934 586.372 454.898 511.96 506.699C437.548 558.5 259.447 536.857 197.01 488.115C134.573 439.373 237.98 399.124 183.304 302.071Z"
              stroke="#828282" stroke-width="3"/>
        <path d="M194.419 298.75C152.121 223.547 217.004 128.258 254.732 90.0141C375.825 -37.2705 515.652 230.14 402.563 316.193C289.473 402.247 584.333 446.696 512.329 496.896C440.325 547.097 268.024 526.176 207.631 478.974C147.238 431.772 247.29 392.755 194.419 298.75Z"
              stroke="#828282" stroke-width="3"/>
        <path d="M205.526 295.622C164.596 222.908 227.355 130.789 263.85 93.8186C380.985 -29.2274 516.296 229.328 406.898 312.512C297.501 395.697 582.77 438.708 513.116 487.234C443.461 535.76 276.765 515.511 218.332 469.867C159.898 424.224 256.689 386.514 205.526 295.622Z"
              stroke="#828282" stroke-width="3"/>
        <path d="M216.69 292.049C177.19 221.837 237.773 132.878 273.002 97.1744C386.072 -21.654 516.652 228.006 411.053 308.341C305.455 388.677 580.794 430.185 513.559 477.05C446.324 523.914 285.43 504.376 229.034 460.306C172.638 416.236 266.064 379.813 216.69 292.049Z"
              stroke="#828282" stroke-width="3"/>
        <path d="M227.797 288.92C189.665 221.198 248.124 135.408 282.12 100.979C391.233 -13.611 517.296 227.194 415.389 304.66C313.482 382.126 579.231 422.198 514.346 467.387C449.46 512.577 294.172 493.711 239.735 451.199C185.298 408.688 275.463 373.572 227.797 288.92Z"
              stroke="#828282" stroke-width="3"/>
        <path d="M238.911 285.6C202.221 220.317 258.525 137.585 291.262 104.38C396.338 -6.13393 517.626 226.002 419.498 300.721C321.371 375.439 577.192 413.996 514.714 457.585C452.237 501.174 302.748 483.03 250.355 442.058C197.962 401.087 284.773 367.204 238.911 285.6Z"
              stroke="#828282" stroke-width="3"/>
        <path d="M250.019 282.471C214.697 219.678 268.876 140.116 300.381 108.185C401.499 1.90904 518.271 225.19 423.835 297.04C329.399 368.889 575.629 406.008 515.501 447.922C455.374 489.837 311.49 472.365 261.057 432.951C210.623 393.538 294.173 360.963 250.019 282.471Z"
              stroke="#828282" stroke-width="3"/>
        <path d="M261.163 279.157C227.219 218.79 279.294 142.297 309.575 111.596C406.763 9.41729 518.975 224.07 428.21 293.152C337.446 362.233 574.088 397.903 516.299 438.203C458.509 478.503 320.228 461.715 271.76 423.827C223.293 385.938 303.592 354.615 261.163 279.157Z"
              stroke="#828282" stroke-width="3"/>
    </g>
    <defs>
        <clipPath id="clip0_6_10594">
            <rect width="315" height="686" fill="white"/>
        </clipPath>
    </defs>
</svg>
