<svg width="866" height="625" viewBox="0 0 866 625" fill="none" xmlns="http://www.w3.org/2000/svg">
    <g clip-path="url(#clip0_6_10593)">
        <path d="M638.757 559.556C585.328 673.678 417.043 677.404 339.58 665.001C85.5629 629.046 284.522 235.822 482.764 297.256C681.006 358.689 483.472 -29.6429 604.24 13.3678C725.008 56.3785 846.438 279.011 841.638 390.884C836.838 502.756 705.543 416.903 638.757 559.556Z"
              stroke="#828282" stroke-width="3"/>
        <path d="M447.58 409.659C419.389 469.748 330.712 471.764 289.897 465.26C156.057 446.417 261.024 239.367 365.466 271.64C469.908 303.913 365.946 99.5668 429.569 122.168C493.193 144.768 557.107 261.918 554.542 320.808C551.976 379.697 482.819 334.548 447.58 409.659Z"
              stroke="#828282" stroke-width="3"/>
        <path d="M629.52 552.442C577.382 663.978 413.005 667.547 337.334 655.389C89.1977 620.131 283.368 235.824 477.034 295.965C670.701 356.105 477.584 -23.5926 595.567 18.5049C713.55 60.6024 832.259 278.288 827.619 387.647C822.979 497.005 694.694 413.023 629.52 552.442Z"
              stroke="#828282" stroke-width="3"/>
        <path d="M620.36 545.328C569.367 654.272 408.732 657.818 334.788 645.973C92.3157 611.631 282.206 236.249 471.44 294.91C660.675 353.572 472.095 -17.1664 587.376 23.9021C702.657 64.9707 818.583 277.517 814.008 384.317C809.433 491.117 684.1 409.148 620.36 545.328Z"
              stroke="#828282" stroke-width="3"/>
        <path d="M611.358 538.108C561.597 644.492 404.775 647.924 332.585 636.342C95.861 602.756 281.171 236.196 465.925 293.521C650.679 350.846 466.503 -11.2522 579.056 28.8777C691.609 69.0075 804.823 276.602 800.378 380.902C795.933 485.202 673.559 405.127 611.358 538.108Z"
              stroke="#828282" stroke-width="3"/>
        <path d="M602.196 530.993C553.581 634.786 400.502 638.195 330.039 626.925C98.9785 594.257 280.008 236.621 460.33 292.467C640.652 348.313 461.014 -4.82587 570.865 34.275C680.715 73.3758 791.147 275.831 786.766 377.573C782.386 479.314 662.965 401.252 602.196 530.993Z"
              stroke="#828282" stroke-width="3"/>
        <path d="M593.194 523.773C545.811 625.006 396.545 628.301 327.835 617.294C102.524 585.382 278.973 236.568 454.815 291.078C630.656 345.588 455.422 1.08848 562.544 39.2506C669.667 77.4127 777.387 274.916 773.136 374.157C768.886 473.399 652.423 397.231 593.194 523.773Z"
              stroke="#828282" stroke-width="3"/>
        <path d="M584.033 516.659C537.796 615.301 392.272 618.572 325.289 607.877C105.641 576.883 277.811 236.993 449.22 290.024C620.629 343.055 449.933 7.51467 554.353 44.6479C658.773 81.781 763.71 274.145 759.525 370.828C755.34 467.511 641.829 393.356 584.033 516.659Z"
              stroke="#828282" stroke-width="3"/>
        <path d="M575.031 509.438C530.025 605.52 388.315 608.678 323.085 598.246C109.187 568.008 276.776 236.94 443.704 288.635C610.633 340.329 444.342 13.429 546.033 49.6234C647.724 85.8178 749.951 273.23 745.895 367.413C741.839 461.596 631.288 389.335 575.031 509.438Z"
              stroke="#828282" stroke-width="3"/>
        <path d="M565.796 502.781C522.048 596.363 384.13 599.359 320.639 589.159C112.444 559.577 275.362 237.132 437.855 287.59C600.349 338.049 438.318 19.4733 537.311 54.7935C636.303 90.1137 735.903 272.757 732.009 364.512C728.115 456.266 620.479 385.804 565.796 502.781Z"
              stroke="#828282" stroke-width="3"/>
        <path d="M556.807 495.589C514.264 586.552 380.182 589.482 318.458 579.576C116.057 550.851 274.486 237.427 432.453 286.449C590.421 335.471 432.939 25.8498 529.173 60.1666C625.407 94.4834 722.213 271.993 718.415 361.175C714.617 450.357 609.985 381.884 556.807 495.589Z"
              stroke="#828282" stroke-width="3"/>
        <path d="M547.633 488.447C506.263 576.877 375.9 579.736 315.89 570.111C119.107 542.203 273.165 237.504 426.746 285.147C580.327 332.79 427.238 31.8139 520.8 65.1664C614.362 98.5189 708.467 271.071 704.768 357.767C701.069 444.463 599.345 377.908 547.633 488.447Z"
              stroke="#828282" stroke-width="3"/>
        <path d="M538.643 481.254C498.478 567.066 371.951 569.858 313.708 560.528C122.72 533.477 272.288 237.799 421.343 284.005C570.397 330.212 421.857 38.1902 512.661 70.5393C603.464 102.888 694.776 270.306 691.173 354.43C687.57 438.554 588.849 373.988 538.643 481.254Z"
              stroke="#828282" stroke-width="3"/>
        <path d="M529.469 474.112C490.478 557.391 367.67 560.113 311.141 551.063C125.77 524.829 270.968 237.876 415.636 282.704C560.304 327.531 416.157 44.1543 504.288 75.5391C592.419 106.924 681.031 269.385 677.526 351.023C674.022 432.66 578.209 370.012 529.469 474.112Z"
              stroke="#828282" stroke-width="3"/>
        <path d="M520.467 466.891C482.707 547.611 363.714 550.218 308.937 541.432C129.315 515.954 269.933 237.824 410.12 281.315C550.307 324.806 410.566 50.0688 495.968 80.5148C581.371 110.961 667.272 268.47 663.896 347.608C660.521 426.745 567.668 365.991 520.467 466.891Z"
              stroke="#828282" stroke-width="3"/>
        <path d="M511.306 459.777C474.692 537.906 359.44 540.49 306.391 532.015C132.433 507.455 268.771 238.249 404.526 280.261C540.281 322.273 405.076 56.4949 487.777 85.912C570.477 115.329 653.595 267.699 650.285 344.278C646.975 420.857 557.074 362.116 511.306 459.777Z"
              stroke="#828282" stroke-width="3"/>
        <path d="M502.305 452.556C466.922 528.125 355.484 530.595 304.188 522.384C135.979 498.58 267.736 238.196 399.011 278.872C530.285 319.548 399.485 62.4092 479.457 90.8875C559.429 119.366 639.836 266.784 636.655 340.863C633.475 414.942 546.533 358.095 502.305 452.556Z"
              stroke="#828282" stroke-width="3"/>
        <path d="M492.909 445.549C458.731 518.5 351.128 520.904 301.599 512.987C139.185 490.039 266.453 238.675 393.201 277.915C519.95 317.155 393.698 68.9712 470.912 96.4462C548.126 123.921 625.739 266.205 622.654 337.712C619.57 409.218 535.631 354.361 492.909 445.549Z"
              stroke="#828282" stroke-width="3"/>
        <path d="M483.906 438.329C450.96 508.72 347.172 511.01 299.396 503.356C142.73 481.165 265.418 238.623 387.686 276.526C509.953 314.43 388.107 74.8856 462.592 101.422C537.077 127.958 611.979 265.29 609.024 334.296C606.069 403.303 525.089 350.34 483.906 438.329Z"
              stroke="#828282" stroke-width="3"/>
        <path d="M474.746 431.214C442.946 499.014 342.899 501.281 296.85 493.939C145.848 472.665 264.257 239.048 382.092 275.472C499.927 311.897 382.618 81.3119 454.401 106.819C526.184 132.326 598.303 264.519 595.413 330.967C592.524 397.415 514.496 346.465 474.746 431.214Z"
              stroke="#828282" stroke-width="3"/>
        <path d="M465.744 423.994C435.175 489.234 338.942 491.387 294.647 484.308C149.394 463.791 263.222 238.995 376.576 274.083C489.931 309.172 377.026 87.2262 446.081 111.795C515.135 136.363 584.544 263.604 581.783 327.552C579.023 391.5 503.954 342.444 465.744 423.994Z"
              stroke="#828282" stroke-width="3"/>
        <path d="M456.569 416.852C427.174 479.559 334.66 481.641 292.078 474.843C152.443 455.143 261.9 239.072 370.868 272.782C479.836 306.491 371.325 93.1904 437.707 116.794C504.089 140.399 570.798 262.683 568.136 324.145C565.474 385.606 493.313 338.468 456.569 416.852Z"
              stroke="#828282" stroke-width="3"/>
    </g>
    <defs>
        <clipPath id="clip0_6_10593">
            <rect width="866" height="625" fill="white"/>
        </clipPath>
    </defs>
</svg>
