<svg width="814" height="409" viewBox="0 0 814 409" fill="none" xmlns="http://www.w3.org/2000/svg">
    <g clip-path="url(#clip0_6_10592)">
        <path d="M150.124 217.106C144.315 290.351 172.966 411.914 334.037 312.21C535.375 187.58 356.883 83.863 554.145 95.1324C751.407 106.402 862.271 -22.4431 726.102 -52.8555C589.932 -83.2679 449.234 93.446 448.123 1.50897"
              stroke="#828282" stroke-width="3"/>
        <path d="M13.9273 145.347C29.3706 151.269 79.4211 143.146 156.077 63.277C251.896 -36.5596 271.59 -58.5747 351.86 -94.2734"
              stroke="#828282" stroke-width="3"/>
        <path d="M143.196 213.989C138.031 283.887 166.097 399.635 320.642 304.142C513.537 184.91 345.053 85.0844 534.747 93.9155C724.897 102.271 831.857 -21.8888 703.454 -51.9219C575.052 -81.9549 442.244 85.657 443.097 -2.75206"
              stroke="#828282" stroke-width="3"/>
        <path d="M136.274 210.869C131.754 277.42 159.235 387.353 307.254 296.071C491.705 182.237 333.229 86.3023 515.355 92.6951C698.393 98.1371 801.449 -21.338 680.813 -50.9917C560.177 -80.6454 435.259 77.8645 438.076 -7.01658"
              stroke="#828282" stroke-width="3"/>
        <path d="M129.358 207.744C125.482 270.948 152.379 375.066 293.872 287.995C469.88 179.559 321.412 87.5156 495.969 91.4701C671.895 93.9984 771.047 -20.7919 658.178 -50.0662C545.309 -79.3406 428.281 70.0674 433.062 -11.2857"
              stroke="#828282" stroke-width="3"/>
        <path d="M122.451 204.614C119.22 264.471 145.532 362.774 280.499 279.914C448.063 176.876 309.604 88.7241 476.592 90.2403C645.406 89.8549 740.654 -20.2506 635.552 -49.1455C530.45 -78.0405 421.312 62.2654 428.057 -15.5597"
              stroke="#828282" stroke-width="3"/>
        <path d="M115.554 201.477C112.967 257.988 138.694 350.476 267.135 271.827C426.257 174.187 297.805 89.9264 457.225 89.0043C618.927 85.7052 710.271 -19.7154 612.936 -48.231C515.6 -76.7466 414.352 54.4573 423.061 -19.8398"
              stroke="#828282" stroke-width="3"/>
        <path d="M108.669 198.334C106.726 251.498 131.868 338.172 253.783 263.733C404.461 171.491 286.017 91.1219 437.869 87.7615C592.459 81.5487 679.899 -19.187 590.331 -47.3232C500.762 -75.4594 407.404 46.6424 418.077 -24.1267"
              stroke="#828282" stroke-width="3"/>
        <path d="M101.797 195.183C100.498 245 125.056 325.858 240.445 255.631C382.679 168.786 274.243 92.3087 418.527 86.5101C566.005 77.3835 649.541 -18.6674 567.739 -46.4242C485.938 -74.181 400.469 38.8188 413.107 -28.4224"
              stroke="#828282" stroke-width="3"/>
        <path d="M94.9406 192.021C94.2863 238.491 118.26 313.535 227.123 247.518C360.913 166.072 262.486 93.4855 399.201 85.2485C539.567 73.2083 619.199 -18.1577 545.164 -45.5352C471.129 -72.9126 393.551 30.9852 408.152 -32.728"
              stroke="#828282" stroke-width="3"/>
        <path d="M88.1054 188.847C88.0955 231.97 111.484 301.199 213.821 239.393C339.169 163.344 250.749 94.6497 379.896 83.9745C513.15 69.0206 588.877 -17.6606 522.61 -44.6587C456.342 -71.6568 386.653 23.139 403.219 -37.0462"
              stroke="#828282" stroke-width="3"/>
        <path d="M81.2955 185.657C81.9299 225.433 104.734 288.847 200.545 231.253C317.449 160.602 239.037 95.7984 360.616 82.6849C486.758 64.8173 558.581 -17.179 500.08 -43.7977C441.579 -70.4165 379.781 15.2773 398.31 -41.3799"
              stroke="#828282" stroke-width="3"/>
        <path d="M74.5175 182.448C75.7961 218.877 98.0157 276.476 187.301 223.092C295.761 157.839 227.357 96.9274 341.368 81.3757C460.398 60.5943 528.317 -16.7171 477.583 -42.9565C426.849 -69.1959 372.94 7.39588 393.434 -45.7333"
              stroke="#828282" stroke-width="3"/>
        <path d="M67.7805 179.213C69.7035 212.295 91.3385 264.08 174.097 214.907C274.114 155.052 215.718 98.0312 322.161 80.0411C434.079 56.346 498.094 -16.2806 455.127 -42.1405C412.16 -68.0005 366.141 -0.510823 388.599 -50.1121"
              stroke="#828282" stroke-width="3"/>
        <path d="M61.0976 175.945C63.6649 205.681 84.7153 251.65 160.948 206.688C252.521 152.231 204.134 99.1016 303.008 78.6732C407.814 52.0645 467.925 -15.8773 432.724 -41.3579C397.524 -66.8385 359.395 -8.45081 383.817 -54.5241"
              stroke="#828282" stroke-width="3"/>
        <path d="M54.4873 172.631C57.6988 199.02 78.1646 239.175 147.872 198.424C231.001 149.364 192.622 100.127 283.927 77.26C381.621 47.7376 437.828 -15.5193 410.395 -40.6206C382.961 -65.7218 352.722 -16.4361 379.109 -58.9814"
              stroke="#828282" stroke-width="3"/>
        <path d="M47.9796 169.255C51.8354 192.297 71.7166 226.636 134.898 190.097C209.584 146.435 181.212 101.089 264.95 75.7837C355.531 43.3475 407.834 -15.2245 388.168 -39.9464C368.501 -64.6683 346.152 -24.4846 374.502 -63.5019"
              stroke="#828282" stroke-width="3"/>
        <path d="M41.6207 165.789C46.1209 185.484 65.4174 214.009 122.072 181.68C188.315 143.416 169.951 101.961 246.121 74.2181C329.59 38.8683 377.989 -15.0189 366.09 -39.3614C354.19 -63.7039 339.731 -32.6223 370.045 -68.1116"
              stroke="#828282" stroke-width="3"/>
        <path d="M35.4874 162.189C40.6318 178.537 59.3438 201.247 109.473 173.129C167.272 140.263 158.916 102.699 227.517 72.5179C303.875 34.2543 348.37 -14.948 344.237 -38.9111C340.104 -62.8743 333.535 -40.8947 365.813 -72.856"
              stroke="#828282" stroke-width="3"/>
        <path d="M29.7031 158.372C35.4918 171.373 53.6191 188.268 97.2221 164.361C146.578 136.893 148.23 103.221 209.263 70.6009C278.509 29.4237 319.099 -15.0938 322.733 -38.6776C326.367 -62.2614 327.688 -49.3838 361.931 -77.8171"
              stroke="#828282" stroke-width="3"/>
        <path d="M24.4265 154.23C30.8595 163.884 48.4022 174.964 85.4792 155.268C126.391 133.198 138.052 103.417 191.516 68.3591C253.65 24.2682 290.336 -15.5644 301.737 -38.7688C313.138 -61.9733 322.349 -58.1977 358.556 -83.103"
              stroke="#828282" stroke-width="3"/>
        <path d="M19.2614 149.935C26.3388 156.243 43.2968 161.507 73.8478 146.022C106.316 129.35 127.985 103.461 173.881 65.9645C228.903 18.9599 261.685 -16.1879 280.853 -39.0129C300.021 -61.838 317.121 -67.1644 355.292 -88.5417"
              stroke="#828282" stroke-width="3"/>
    </g>
    <defs>
        <clipPath id="clip0_6_10592">
            <rect width="814" height="409" fill="white"/>
        </clipPath>
    </defs>
</svg>
