<svg width="106" height="106" viewBox="0 0 106 106" fill="none" xmlns="http://www.w3.org/2000/svg">
    <path d="M53 3C59.5661 3 66.0679 4.29329 72.1342 6.80602C78.2005 9.31876 83.7124 13.0017 88.3553 17.6447C92.9983 22.2876 96.6812 27.7996 99.194 33.8658C101.707 39.9321 103 46.4339 103 53C103 59.5661 101.707 66.0679 99.194 72.1342C96.6812 78.2005 92.9983 83.7124 88.3553 88.3553C83.7124 92.9983 78.2004 96.6812 72.1342 99.194C66.0679 101.707 59.5661 103 53 103C46.4339 103 39.9321 101.707 33.8658 99.194C27.7995 96.6812 22.2876 92.9983 17.6446 88.3553C13.0017 83.7124 9.31875 78.2004 6.80601 72.1342C4.29328 66.0679 3 59.5661 3 53C3 46.4339 4.29329 39.9321 6.80603 33.8658C9.31877 27.7995 13.0017 22.2876 17.6447 17.6446C22.2876 13.0017 27.7996 9.31874 33.8659 6.80601C39.9321 4.29328 46.4339 3 53 3L53 3Z"
          stroke="url(#paint0_linear_689_31056)" stroke-width="5" stroke-linecap="round"/>
    <defs>
        <linearGradient id="paint0_linear_689_31056" x1="102.845" y1="53" x2="2.84456" y2="53"
                        gradientUnits="userSpaceOnUse">
            <stop/>
        </linearGradient>
    </defs>
</svg>
