<svg width="21" height="21" viewBox="0 0 21 21" fill="none" xmlns="http://www.w3.org/2000/svg">
  <mask id="mask0_625_36761" style="mask-type:alpha" maskUnits="userSpaceOnUse" x="0" y="0" width="21" height="21">
    <rect x="0.5" y="0.5" width="20" height="20" fill="#D9D9D9"/>
  </mask>
  <g mask="url(#mask0_625_36761)">
    <path d="M2.16663 14.6667V13H9.66663V14.6667H2.16663ZM12.5 17.1667L11.3333 16L13.5 13.8333L11.3333 11.6667L12.5 10.5L14.6666 12.6667L16.8333 10.5L18 11.6667L15.8333 13.8333L18 16L16.8333 17.1667L14.6666 15L12.5 17.1667Z" fill="#E34642"/>
    <path d="M2.16675 7.99998V6.33331H9.66675V7.99998H2.16675ZM14.2917 9.66665L11.3334 6.70831L12.5001 5.54165L14.2709 7.31248L17.8126 3.77081L18.9792 4.95831L14.2917 9.66665Z" fill="#37CC42"/>
  </g>
</svg>
