<svg width="2142" height="2170" viewBox="0 0 2142 2170" fill="none" xmlns="http://www.w3.org/2000/svg">
<path d="M242.297 1089.14C270.264 1117.11 270.254 1162.46 242.273 1190.44C214.292 1218.42 168.938 1218.44 140.97 1190.47C113.002 1162.5 113.013 1117.15 140.994 1089.16C168.974 1061.18 214.329 1061.17 242.297 1089.14Z" fill="#C80A50"/>
<path fill-rule="evenodd" clip-rule="evenodd" d="M429.413 1017.77C481.692 1070.61 481.501 1155.84 428.853 1208.49C404.577 1232.77 400.042 1235.51 392.112 1249.25C363.785 1298.33 370.913 1362.51 413.301 1404.9L413.82 1405.41L861.308 1852.9L862.859 1851.35C1128.02 2115.96 1557.58 2115.68 1822.65 1850.61C2087.9 1585.37 2088 1155.43 1822.88 890.301C1819.95 887.37 1817 884.474 1814.02 881.604C1809.36 877.099 1804.65 872.684 1799.89 868.348L1515.38 583.839C1506.23 572.632 1496.42 561.781 1485.97 551.325C1317.88 383.234 1045.75 382.835 878.151 550.433C849.395 579.188 853.659 625.2 882.401 653.942L1083.79 855.328C1112.09 884.19 1111.91 930.551 1083.25 959.215C1054.58 987.879 1008.22 988.057 979.358 959.756L667.252 647.65C529.694 514.005 310.017 515.023 174.174 650.866C141.216 683.825 147.998 736.356 180.941 769.299L429.414 1017.77L429.413 1017.77Z" fill="#C80A50"/>
<path fill-rule="evenodd" clip-rule="evenodd" d="M676.672 148.369C683.998 141.042 691.959 134.737 700.377 129.453C731.151 110.135 769.242 125.156 794.928 150.833L913.362 269.257C952.996 311.702 952.133 378.271 910.743 419.661C869.353 461.052 802.783 461.915 760.338 422.281L672.494 334.436L672.583 334.348C624.156 281.591 625.524 199.517 676.672 148.369Z" fill="#C80A50"/>
<path fill-rule="evenodd" clip-rule="evenodd" d="M797.923 1046.11C841.978 1002.06 911.597 1018.14 955.632 1062.17L1125.05 1231.59C1181.56 1288.1 1272.72 1288.54 1328.69 1232.57C1384.65 1176.61 1384.21 1085.44 1327.7 1028.93L1207.54 908.774C1189.43 890.663 1182.48 862.049 1200.6 843.93C1240.23 804.296 1304.72 804.403 1345.32 843.896L1704.45 1203.02L1706 1204.57C1707.04 1205.6 1708.08 1206.63 1709.1 1207.68C1858.28 1361.84 1856.42 1608.08 1703.8 1760.71C1549.79 1914.71 1300.5 1915.18 1146.63 1761.87L798.354 1413.59C696.76 1312 696.564 1147.47 797.923 1046.11Z" fill="#FAB400"/>
<path d="M1654.77 1457.33C1724.69 1527.25 1724.66 1640.63 1654.71 1710.59C1584.76 1780.54 1471.37 1780.56 1401.45 1710.64C1331.53 1640.73 1331.56 1527.34 1401.51 1457.39C1471.46 1387.44 1584.85 1387.41 1654.77 1457.33Z" fill="white"/>
<path d="M96.0868 854.152C29.4217 787.486 -2.64156 657.975 89.3203 566.013L91.463 563.884C246.761 410.526 482.03 387.279 661.908 493.557L587.639 419.289C584.567 416.217 581.697 413.017 579.028 409.711C492.573 309.645 496.904 158.429 591.818 63.5157C605.553 49.7805 620.585 37.8559 636.577 27.8172L637.777 27.0694C739.742 -35.9683 839.264 25.4782 879.766 65.9665L794.927 150.834C769.442 125.357 731.744 110.371 701.098 129.007L700.377 129.453C692.485 134.407 684.994 140.258 678.052 147.007L676.671 148.369C625.922 199.117 624.179 280.311 671.456 333.106L672.581 334.347L672.492 334.436L760.336 422.281C802.782 461.915 869.351 461.051 910.741 419.661C951.808 378.595 952.979 312.741 914.282 270.256L913.361 269.256L794.927 150.834L879.776 65.9768L998.21 184.4L998.934 185.131C999.655 185.864 1000.37 186.606 1001.07 187.357C1035.9 224.663 1055.91 270.783 1061.09 318.21C1238.8 278.571 1432.49 328.144 1570.82 466.472C1582.58 478.235 1593.72 490.417 1604.23 502.979L1882.86 781.614C1887.71 786.069 1892.54 790.608 1897.34 795.241L1899.95 797.774C1902.56 800.313 1905.15 802.869 1907.73 805.448C2219.75 1117.47 2219.58 1623.39 1907.51 1935.47C1601.48 2241.49 1109.04 2247.59 795.835 1953.47C789.309 1949.22 783.167 1944.32 777.514 1938.81L776.453 1937.76L329.125 1490.42L328.78 1490.08C328.669 1489.97 328.558 1489.86 328.447 1489.75C281.669 1442.97 257.109 1382.09 255.246 1320.6C188.272 1344.12 110.829 1329.35 56.995 1276.19L56.116 1275.32L55.2418 1274.44C-18.7501 1199.51 -18.3743 1078.83 56.1395 1004.31L57.0185 1003.44C93.9247 966.997 141.959 948.57 190.116 948.181L96.0868 854.152ZM140.992 1089.17C113.012 1117.15 113.001 1162.5 140.969 1190.47C168.718 1218.22 213.584 1218.42 241.613 1191.09L242.271 1190.44C270.033 1162.68 270.261 1117.82 242.946 1089.8L242.296 1089.14C214.328 1061.17 168.973 1061.18 140.992 1089.17ZM739.436 550.834C740.699 551.983 741.958 553.142 743.212 554.307C743.338 553.765 743.466 553.223 743.598 552.681C742.206 552.08 740.818 551.464 739.436 550.834ZM429.412 1017.77L429.411 1017.77C481.691 1070.61 481.499 1155.84 428.851 1208.49L424.525 1212.8C403.996 1233.15 399.545 1236.37 392.11 1249.25L391.453 1250.4C363.897 1299.33 371.243 1362.84 413.3 1404.9L413.819 1405.41L861.306 1852.9L862.857 1851.35C1126.98 2114.92 1554.23 2115.68 1819.54 1853.71L1822.65 1850.61C2086.86 1586.4 2087.99 1158.78 1825.97 893.416L1822.88 890.301C1819.95 887.37 1817 884.474 1814.02 881.604C1809.36 877.099 1804.64 872.684 1799.89 868.348L1515.38 583.839C1506.8 573.333 1497.65 563.139 1487.92 553.29L1485.97 551.325C1317.88 383.234 1045.75 382.835 878.151 550.433C849.395 579.188 853.659 625.2 882.401 653.942L1083.79 855.328C1112.09 884.19 1111.91 930.551 1083.24 959.215L1082.57 959.881C1053.86 987.88 1007.99 987.836 979.357 959.756L667.251 647.65C529.692 514.005 310.016 515.023 174.173 650.866C141.215 683.824 147.997 736.356 180.94 769.299L429.412 1017.77Z" fill="white"/>
</svg>
