<svg width="51" height="50" viewBox="0 0 51 50" fill="none" xmlns="http://www.w3.org/2000/svg">
<path d="M38.7344 10.1719L38.125 7.875L35.8281 7.26562C35.6406 7.17188 35.5 6.98438 35.5 6.75C35.5 6.5625 35.6406 6.375 35.8281 6.28125L38.125 5.625L38.7344 3.375C38.8281 3.1875 39.0156 3 39.25 3C39.4375 3 39.625 3.1875 39.7188 3.375L40.375 5.625L42.625 6.28125C42.8125 6.375 43 6.5625 43 6.75C43 6.98438 42.8125 7.17188 42.625 7.26562L40.375 7.875L39.7188 10.1719C39.625 10.3594 39.4375 10.5 39.25 10.5C39.0156 10.5 38.8281 10.3594 38.7344 10.1719ZM33.4844 10.4062L35.6406 14.8125L40.5156 15.5156C41.4062 15.6562 41.7812 16.7812 41.125 17.4375L37.6094 20.8594L38.4531 25.6875C38.5938 26.625 37.6562 27.3281 36.8125 26.9062L32.4531 24.6094L28.1406 26.9062C27.2969 27.3281 26.3594 26.625 26.5 25.6875L27.3438 20.8594L23.8281 17.4375C23.1719 16.7812 23.5 15.6562 24.4375 15.5156L29.3125 14.8125L31.4688 10.4062C31.8906 9.5625 33.0625 9.5625 33.4844 10.4062ZM43.5625 14.4375L41.7812 13.9219C41.5938 13.875 41.5 13.6875 41.5 13.5C41.5 13.3594 41.5938 13.1719 41.7812 13.125L43.5625 12.6094L44.0781 10.8281C44.125 10.6406 44.3125 10.5 44.5 10.5C44.6406 10.5 44.8281 10.6406 44.875 10.8281L45.3906 12.6094L47.1719 13.125C47.3594 13.1719 47.5 13.3594 47.5 13.5C47.5 13.6875 47.3594 13.875 47.1719 13.9219L45.3906 14.4375L44.875 16.2188C44.8281 16.4062 44.6406 16.5 44.5 16.5C44.3125 16.5 44.125 16.4062 44.0781 16.2188L43.5625 14.4375Z" fill="url(#paint0_linear_4131_652)"/>
<path d="M46.6719 35.7031L36.8281 42.9688C34.9531 44.2969 32.7656 45 30.5 45H18H5.5C4.09375 45 3 43.9062 3 42.5V37.5C3 36.1719 4.09375 35 5.5 35H8.3125L11.8281 32.1875C13.625 30.7812 15.8125 30 18.0781 30H24.25H25.5H30.5C31.8281 30 33 31.1719 33 32.5C33 33.9062 31.8281 35 30.5 35H25.5H24.25C23.5469 35 23 35.625 23 36.25C23 36.9531 23.5469 37.5 24.25 37.5H33.625L43 30.625C44.4062 29.6094 46.3594 29.9219 47.375 31.3281C48.3906 32.7344 48.0781 34.6875 46.6719 35.7031ZM18.0781 35H18C18 35.0781 18 35.0781 18 35.0781C18.0781 35.0781 18.0781 35.0781 18.0781 35.0781C18.0781 35.0781 18.0781 35.0781 18.0781 35Z" fill="url(#paint1_linear_4131_652)"/>
<defs>
<linearGradient id="paint0_linear_4131_652" x1="35.5" y1="3" x2="35.5" y2="27" gradientUnits="userSpaceOnUse">
<stop stop-color="#69FDFF"/>
<stop offset="1" stop-color="#00A3A5"/>
</linearGradient>
<linearGradient id="paint1_linear_4131_652" x1="25.5" y1="5" x2="25.5" y2="45" gradientUnits="userSpaceOnUse">
<stop stop-color="#69FDFF"/>
<stop offset="1" stop-color="#00A3A5"/>
</linearGradient>
</defs>
</svg>
